HIERARCHY
ROOT Hips
{
	OFFSET	0.00	0.00	0.00
	CHANNELS 6 Xposition Yposition Zposition Zrotation Xrotation Yrotation
	JOINT Spine
	{
		OFFSET	 0.00	0.01	 0.00
		CHANNELS 3 Zrotation Xrotation Yrotation
		JOINT Spine1
		{
			OFFSET	 0.00	 2.45913012437421	 0.00
			CHANNELS 3 Zrotation Xrotation Yrotation
            JOINT Neck
            {
                OFFSET	 0.00	 2.48462964506057	 0.00
                CHANNELS 3 Zrotation Xrotation Yrotation
                JOINT Head
                {
                    OFFSET	 0.00	 0.927524780924562	 0.00
                    CHANNELS 3 Zrotation Xrotation Yrotation
                    End Site 
                    {
                        OFFSET	 0.00	 1.14999962169752	 0.00
                    }
                }
            }
			JOINT LeftShoulder
			{
				OFFSET	 0.00	 2.48462964506057	 0.00
				CHANNELS 3 Zrotation Xrotation Yrotation
				JOINT LeftUpArm
				{
					OFFSET	 0.00	 1.24881979654096	 0.00
					CHANNELS 3 Zrotation Xrotation Yrotation
					JOINT LeftForeArm
					{
						OFFSET	 0.00	2.59758046908119	 0.00
						CHANNELS 3 Zrotation Xrotation Yrotation
						JOINT LeftHand
						{
							OFFSET	 0.00	2.45542024364365	 0.00
							CHANNELS 3 Zrotation Xrotation Yrotation
							JOINT LeftHandThumb 
							{
								OFFSET	 0.00	0.00	 0.00
								CHANNELS 3 Zrotation Xrotation Yrotation
								End Site
								{
									OFFSET	 0.00	0.00	1.00000003353624
								}
							}
							JOINT L_Wrist_End 
							{
								OFFSET	 0.00	0.99999967115358	 0.00
								CHANNELS 3 Zrotation Xrotation Yrotation
								End Site 
								{
									OFFSET	 0.00	 0.00	 0.00
								}
							}
						}
					}
				}
			}
			JOINT RightShoulder
			{
				OFFSET	 0.00	 2.48462964506057	 0.00
				CHANNELS 3 Zrotation Xrotation Yrotation
				JOINT RightUpArm
				{
					OFFSET	 0.00	 1.24881979654096	 0.00
					CHANNELS 3 Zrotation Xrotation Yrotation
					JOINT RightForeArm
					{
						OFFSET	 0.00	2.59758046908119	 0.00
						CHANNELS 3 Zrotation Xrotation Yrotation
						JOINT RightHand
						{
							OFFSET	 0.00	2.45542024364365	 0.00
							CHANNELS 3 Zrotation Xrotation Yrotation
							JOINT RightHandThumb 
							{
								OFFSET	 0.00	0.00	 0.00
								CHANNELS 3 Zrotation Xrotation Yrotation
								End Site
								{
									OFFSET	 0.00	0.00	1.00000003353624
								}
							}
							JOINT R_Wrist_End 
							{
								OFFSET	 0.00	0.99999967115358	 0.00
								CHANNELS 3 Zrotation Xrotation Yrotation
								End Site 
								{
									OFFSET	 0.00	 0.00	 0.00
								}
							}
						}
					}
				}
			}
		}
	}
	JOINT LeftUpLeg
	{
		OFFSET	 1.2719394002717	 0.00	 0.00
		CHANNELS 3 Zrotation Xrotation Yrotation
		JOINT LeftLowLeg
		{
			OFFSET	 0.00	-4.3429100912261	 0.00
			CHANNELS 3 Zrotation Xrotation Yrotation
			JOINT LeftFoot
			{
				OFFSET	 0.00	-4.48767017425826	 0.00
				CHANNELS 3 Zrotation Xrotation Yrotation
				JOINT LeftToeBase
                {
                    OFFSET	 0.00	0.00	 1.51507020887566
                    CHANNELS 3 Zrotation Xrotation Yrotation
                    End Site 
                    {
                        OFFSET	 0.00	0.00	 0.75000010571191
                    }
                }
			}
		}
	}
	JOINT RightUpLeg
	{
		OFFSET	 -1.2719393604653	 0.00	 0.00
		CHANNELS 3 Zrotation Xrotation Yrotation
		JOINT RightLowLeg
		{
			OFFSET	 0.00	-4.3429100912261	 0.00
			CHANNELS 3 Zrotation Xrotation Yrotation
			JOINT RightFoot
			{
				OFFSET	 0.00	-4.48767017425826	 0.00
				CHANNELS 3 Zrotation Xrotation Yrotation
				JOINT RightToeBase
                {
                    OFFSET	 0.00	0.00	 1.51507020887566
                    CHANNELS 3 Zrotation Xrotation Yrotation
                    End Site 
                    {
                        OFFSET	 0.00	0.00	 0.749999965609858
                    }
                }   
			}
		}
	}
}
MOTION 
Frames:	15 
Frame Time: 0.02 
  1.2679900360107421 0.8884359741210938 9.470709838867187 131.501 72.3599 890.206 -11.4524 -15.1657 -5.0381 6.96966 -3.22247 9.09786 43.8666 38.0787 332.564 66.6838 -81.3399 -300.357 -112.5806 -3.90396 362.273 -45.3337 -1.82615 14.6218 0.0 17.5078 0.0 7.98126 -12.4831 -10.0881 0.0 0.0 0.0 0.0 0.0 0.0 116.997 -8.56411 -351.761 30.6227 3.08281 -306.594 0.0 103.84 0.0 20.1473 18.8773 56.1286 0.0 0.0 0.0 0.0 0.0 0.0 -0.581878 -15.1647 0.597547 0.0 13.2067 0.0 -13.5501 -6.8241005 11.5885 0.0 -18.55151 0.0 -1.75289 -35.3882 5.27553 0.0 38.91 0.0 39.9333 -1.7254009 1.04813 0.0 -19.99698 0.0 
  1.217740020751953 0.923926010131836 9.467230224609375 131.193 72.6439 889.922 -11.6013 -15.3704 -5.15312 7.14788 -3.15338 9.0038 43.9194 39.6636 333.098 65.813 -81.8133 -301.215 -112.832 -3.95975 362.508 -44.8575 -1.2371 13.5322 0.0 18.4652 0.0 8.74022 -12.4289 -11.4335 0.0 0.0 0.0 0.0 0.0 0.0 117.378204 -9.39442 -352.155 31.5084 1.47836 -306.595 0.0 105.43 0.0 20.9174 19.7467 55.4971 0.0 0.0 0.0 0.0 0.0 0.0 -0.225534 -14.6441 0.969714 0.0 13.1968 0.0 -14.0366 -7.1707 11.6232 0.0 -18.4049 0.0 -2.11159 -34.1655 4.83714 0.0 39.0552 0.0 38.7279 -2.7542992 0.0631164 0.0 -19.33494 0.0 
  1.1640200042724609 0.9618209838867188 9.462559814453124 130.618 72.9034 889.867 -11.7161 -15.6921 -5.23565 7.14443 -3.00727 8.88452 43.9159 41.2343 333.718 64.8271 -82.2268 -302.139 -113.0343 -3.96124 362.502 -44.4171 -0.868519 12.4369 0.0 19.4286 0.0 9.5176 -12.2956 -12.5523 0.0 0.0 0.0 0.0 0.0 0.0 117.7215 -10.2374 -352.19 32.5418 -0.186199 -306.782 0.0 106.791 0.0 21.4668 20.3121 54.7345 0.0 0.0 0.0 0.0 0.0 0.0 0.0723544 -14.1448 1.25896 0.0 13.2047 0.0 -14.5178 -7.5137997 11.7399 0.0 -18.29036 0.0 -2.43513 -32.927 4.76782 0.0 39.0718 0.0 37.8245 -3.7229996 -0.933956 0.0 -19.8425 0.0 
  1.108209991455078 1.0028299713134765 9.457520141601563 130.09 73.3146 889.736 -11.7587 -15.8069 -5.30968 7.06368 -2.98814 8.80451 44.1653 42.6541 334.0 63.0767 -82.5845 -303.522 -113.2321 -4.04898 362.525 -43.9614 -0.454974 11.5257 0.0 20.3281 0.0 10.2128 -12.2462 -13.6401 0.0 0.0 0.0 0.0 0.0 0.0 118.0668 -10.9823 -352.15 33.4958 -1.93405 -306.833 0.0 107.955 0.0 22.1217 20.5605 54.0208 0.0 0.0 0.0 0.0 0.0 0.0 0.375558 -13.496 1.53398 0.0 13.2534 0.0 -15.2034 -7.9121 11.8157 0.0 -18.10835 0.0 -2.79475 -31.4804 4.52922 0.0 38.9027 0.0 36.7606 -4.463499 -2.00914 0.0 -19.67088 0.0 
  1.0465499877929687 1.0462200164794921 9.452109985351562 129.549 73.7953 889.568 -11.7748 -16.0608 -5.35117 6.9274 -2.69479 8.66007 44.2913 43.9962 334.36 61.0406 -82.8976 -305.083 -113.4319 -4.05375 362.218 -43.5471 -0.317711 10.9117 0.0 21.1614 0.0 11.0543 -12.211 -14.2539 0.0 0.0 0.0 0.0 0.0 0.0 118.4285 -11.7204 -352.237 34.4142 -3.28382 -306.919 0.0 108.905 0.0 21.7571 20.4481 53.2055 0.0 0.0 0.0 0.0 0.0 0.0 0.695898 -12.6966 1.86694 0.0 13.217 0.0 -15.8618 -8.2803 11.9055 0.0 -17.98816 0.0 -3.09861 -29.8148 4.42302 0.0 38.3624 0.0 36.122 -5.0422 -2.79559 0.0 -19.83033 0.0 
  0.9800050354003906 1.0923500061035156 9.446079711914063 129.11 74.3644 889.229 -11.7528 -16.2657 -5.37959 6.87033 -2.47933 8.52669 44.2156 45.5576 334.902 58.4476 -83.3586 -307.221 -113.6936 -4.02754 362.163 -43.1471 -0.105637 9.34409 0.0 21.9424 0.0 10.7994 -12.6917 -14.3794 0.0 0.0 0.0 0.0 0.0 0.0 118.6504 -12.3967 -352.398 35.3066 -4.52743 -306.872 0.0 109.677 0.0 21.7198 20.2089 52.4831 0.0 0.0 0.0 0.0 0.0 0.0 1.04224 -11.7652 2.05814 0.0 13.1947 0.0 -16.6209 -8.733999 12.1084 0.0 -17.80752 0.0 -3.33276 -27.986 4.35909 0.0 37.6379 0.0 35.4523 -5.5788994 -3.5752 0.0 -19.91664 0.0 
  0.9095659637451172 1.1436499786376952 9.438090209960938 128.678 74.9627 888.771 -11.43 -16.867 -5.30249 6.24101 -1.51435 8.08386 43.8124 46.9701 335.879 56.5447 -83.5919 -308.566 -113.779 -4.21941 361.615 -42.7365 0.146503 8.84158 0.0 22.4646 0.0 11.5139 -12.7482 -15.081 0.0 0.0 0.0 0.0 0.0 0.0 119.1039 -12.6342 -352.405 36.2334 -5.36616 -306.612 0.0 110.232 0.0 21.8536 19.8645 51.7044 0.0 0.0 0.0 0.0 0.0 0.0 1.44082 -10.7551 2.40202 0.0 13.1528 0.0 -17.4358 -9.2243 12.2007 0.0 -17.62273 0.0 -3.491 -26.1267 4.34162 0.0 36.8055 0.0 34.839 -6.2623005 -4.53717 0.0 -19.218319 0.0 
  0.8356060028076172 1.1986399841308595 9.428800048828125 128.31 75.8323 888.167 -11.2089 -17.1064 -5.2239 5.90967 -0.824006 7.84984 43.3536 48.4635 336.723 52.5474 -83.9968 -312.037 -113.985504 -4.2534 361.431 -42.3676 0.447483 7.84656 0.0 22.7176 0.0 11.7088 -12.85 -15.4064 0.0 0.0 0.0 0.0 0.0 0.0 119.4012 -13.07 -352.168 36.925 -6.13932 -306.728 0.0 110.625 0.0 21.7219 19.5424 50.8786 0.0 0.0 0.0 0.0 0.0 0.0 1.82398 -9.43112 2.77196 0.0 13.0894 0.0 -18.3393 -9.724199 12.2683 0.0 -17.46739 0.0 -3.57918 -24.0309 4.48722 0.0 35.9128 0.0 33.8042 -6.8003006 -5.70967 0.0 -18.96302 0.0 
  0.7593509674072265 1.2581300354003906 9.41697021484375 127.754 76.7397 887.599 -10.8423 -17.3737 -5.06177 5.36781 -0.118993 7.59242 42.8904 50.0368 337.546 47.1315 -84.3978 -316.846 -114.1286 -4.27937 361.13 -41.9518 0.533744 8.25857 0.0 22.5909 0.0 13.2383 -11.9823 -15.9061 0.0 0.0 0.0 0.0 0.0 0.0 119.705795 -13.356 -351.954 37.5862 -6.60141 -306.709 0.0 110.919 0.0 21.0002 18.659 47.0577 0.0 0.0 0.0 0.0 0.0 0.0 2.16681 -8.0582 3.12195 0.0 13.0997 0.0 -19.3713 -10.3298 12.3579 0.0 -17.22727 0.0 -3.69802 -21.9293 4.5705 0.0 34.9117 0.0 32.8261 -7.261999 -6.76634 0.0 -18.78891 0.0 
  0.681093978881836 1.3269400024414062 9.4022998046875 126.958 77.5708 887.116 -10.5669 -17.6178 -4.91557 5.00827 0.38602 7.41935 42.1491 51.6807 338.543 38.1288 -84.7126 -325.249 -114.3041 -4.36549 361.087 -41.5564 0.806989 7.50853 0.0 22.4655 0.0 13.2006 -11.9507 -16.1601 0.0 0.0 0.0 0.0 0.0 0.0 119.8674 -13.5721 -351.816 38.1342 -6.81837 -306.685 0.0 111.13 0.0 20.9223 18.3974 45.0821 0.0 0.0 0.0 0.0 0.0 0.0 2.52482 -6.73319 3.6337 0.0 13.1014 0.0 -20.5079 -10.924601 12.3507 0.0 -17.25551 0.0 -3.69157 -20.0633 4.92161 0.0 34.0332 0.0 32.0265 -7.6637 -7.89898 0.0 -18.64925 0.0 
  0.6021310043334961 1.4041400146484375 9.384730224609376 125.887 78.3501 886.752 -10.2447 -17.9147 -4.72057 4.60336 0.898998 7.25071 41.2765 53.2663 339.577 27.0304 -84.8424 -335.651 -114.4057 -4.39467 360.746 -41.2486 0.785155 7.07798 0.0 22.1558 0.0 13.392 -11.7552 -16.1935 0.0 0.0 0.0 0.0 0.0 0.0 120.0465 -13.637 -351.578 38.3814 -6.91848 -306.946 0.0 111.212 0.0 21.0915 18.6546 45.4451 0.0 0.0 0.0 0.0 0.0 0.0 2.86083 -5.46655 4.03782 0.0 13.1738 0.0 -21.6889 -11.627001 12.4895 0.0 -17.17429 0.0 -3.55103 -18.4189 5.6462 0.0 33.3078 0.0 31.5512 -7.8787994 -9.00685 0.0 -18.26733 0.0 
  0.5226490020751953 1.4907400512695312 9.36489990234375 124.444 79.0852 886.592 -10.2643 -17.8691 -4.56854 4.89294 0.760425 7.45713 40.3494 54.8237 340.361 11.7341 -84.7144 -350.333 -114.7217 -4.33342 361.075 -40.9595 0.904777 6.50291 0.0 21.8284 0.0 13.4986 -11.6219 -16.2933 0.0 0.0 0.0 0.0 0.0 0.0 119.8552 -14.0749 -351.441 38.509 -6.82097 -307.383 0.0 111.3 0.0 21.2918 18.8086 45.6345 0.0 0.0 0.0 0.0 0.0 0.0 3.20087 -4.23162 4.79168 0.0 13.2742 0.0 -23.0541 -12.2745 12.345 0.0 -17.05614 0.0 -3.35175 -16.9932 6.52707 0.0 32.7057 0.0 32.5148 -7.9116993 -9.33231 0.0 -18.24235 0.0 
  0.4426300048828125 1.5861900329589844 9.340009765625 122.028 79.8042 887.275 -10.1752 -18.0368 -4.39449 4.79721 0.991324 7.5084 38.9073 56.2558 341.678 -1.42239 -84.1532 -362.792 -114.8296 -4.42962 361.067 -40.7772 0.929927 5.90059 0.0 21.4939 0.0 13.7691 -11.3867 -16.6995 0.0 0.0 0.0 0.0 0.0 0.0 119.7546 -14.0881 -351.18 38.6123 -6.67773 -308.015 0.0 111.505 0.0 21.3221 18.7871 45.4248 0.0 0.0 0.0 0.0 0.0 0.0 3.4034 -3.04154 5.6094 0.0 13.4445 0.0 -24.4195 -12.916401 12.2511 0.0 -16.97687 0.0 -3.22029 -15.746 7.73693 0.0 32.2726 0.0 37.4695 -9.167299 -6.88067 0.0 -18.32447 0.0 
  0.3609170150756836 1.6899000549316405 9.312990112304687 119.257 80.4553 888.26 -9.82894 -18.397 -4.01489 4.21838 1.54196 7.49645 37.468 57.2819 342.92 -10.4521 -83.3809 -370.922 -114.8041 -4.38845 360.826 -40.5202 0.7913 5.17976 0.0 21.3444 0.0 14.0955 -11.3665 -16.4904 0.0 0.0 0.0 0.0 0.0 0.0 119.982 -13.9846 -350.867 38.557 -6.34915 -308.556 0.0 111.79 0.0 21.4158 18.9497 45.8143 0.0 0.0 0.0 0.0 0.0 0.0 3.62502 -1.87699 6.70178 0.0 13.5899 0.0 -25.8434 -13.455299 11.9705 0.0 -16.9158 0.0 -3.0459 -14.6637 8.67686 0.0 31.5328 0.0 41.8338 -9.951401 -3.67995 0.0 -18.52656 0.0 
  0.2786870002746582 1.8072700500488281 9.285999755859375 117.069 80.8834 888.576 -9.39914 -18.9036 -3.60192 3.75833 2.15321 7.42034 35.6037 58.3206 344.583 -18.4622 -82.6318 -378.024 -114.8911 -4.4374 360.817 -40.1381 0.825851 4.10973 0.0 21.3492 0.0 14.482 -11.1375 -16.2984 0.0 0.0 0.0 0.0 0.0 0.0 120.2896 -13.6957 -350.619 38.4269 -5.87228 -309.025 0.0 112.196 0.0 21.2466 19.2016 45.5479 0.0 0.0 0.0 0.0 0.0 0.0 4.06484 -0.984562 7.67899 0.0 13.9742 0.0 -27.3405 -14.1161995 11.7796 0.0 -16.80549 0.0 -2.48535 -13.9316 9.69746 0.0 30.6813 0.0 42.2455 -10.687799 -2.22632 0.0 -18.02639 0.0 
